<svg xmlns="http://www.w3.org/2000/svg" width="200" height="60" viewBox="0 0 200 60">
  <style>
    .logo-text { 
      font-family: 'Segoe UI', Tahoma, Geneva, Verdana, sans-serif; 
      font-weight: bold;
    }
    .tagline { 
      font-family: 'Segoe UI', Tahoma, Geneva, Verdana, sans-serif; 
      font-style: italic;
      font-size: 12px;
    }
    .icon {
      fill: #e67e22;
    }
    .text-primary {
      fill: #2c3e50;
    }
    .text-accent {
      fill: #e67e22;
    }
  </style>
  
  <!-- Fork and Knife Icon -->
  <g class="icon" transform="translate(10, 15) scale(0.8)">
    <path d="M11,2C12.4,2 13.5,3.1 13.5,4.5C13.5,5.4 13.1,6.2 12.4,6.7L12.4,15C12.4,15.5 12,16 11.5,16C11,16 10.6,15.6 10.6,15L10.6,6.7C9.9,6.2 9.5,5.4 9.5,4.5C9.5,3.1 10.6,2 11,2M4,2H7.5C8.4,2 9,2.8 9,3.5C9,4.1 8.4,5 7.5,5H7V14.5C7,14.8 6.8,15 6.5,15C6.2,15 6,14.8 6,14.5V5H4C3.4,5 3,4.1 3,3.5C3,2.8 3.4,2 4,2M19,2C19.6,2 20,2.8 20,3.5C20,4.1 19.6,5 19,5H17V14.5C17,14.8 16.8,15 16.5,15C16.2,15 16,14.8 16,14.5V5H14C13.4,5 13,4.1 13,3.5C13,2.8 13.4,2 14,2H19Z"/>
  </g>
  
  <!-- Restaurant Name -->
  <text x="50" y="35" class="logo-text text-primary" font-size="24">The</text>
  <text x="85" y="35" class="logo-text text-accent" font-size="24">Desires</text>
  
  <!-- Tagline -->
  <text x="50" y="48" class="tagline text-primary">Savor the Experience</text>
</svg>
